<svg width="24" height="24" viewBox="0 0 24 24" fill="none" xmlns="http://www.w3.org/2000/svg">
<path d="M18.915 4.07313C18.7025 3.44625 18.1075 3 17.4062 3H5.71875C5.0175 3 4.43312 3.44625 4.21 4.07313L2 10.4375V18.9375C2 19.5219 2.47812 20 3.0625 20H4.125C4.70938 20 5.1875 19.5219 5.1875 18.9375V17.875H17.9375V18.9375C17.9375 19.5219 18.4156 20 19 20H20.0625C20.6469 20 21.125 19.5219 21.125 18.9375V10.4375L18.915 4.07313ZM5.71875 14.6875C4.83688 14.6875 4.125 13.9756 4.125 13.0938C4.125 12.2119 4.83688 11.5 5.71875 11.5C6.60062 11.5 7.3125 12.2119 7.3125 13.0938C7.3125 13.9756 6.60062 14.6875 5.71875 14.6875ZM17.4062 14.6875C16.5244 14.6875 15.8125 13.9756 15.8125 13.0938C15.8125 12.2119 16.5244 11.5 17.4062 11.5C18.2881 11.5 19 12.2119 19 13.0938C19 13.9756 18.2881 14.6875 17.4062 14.6875ZM4.125 9.375L5.71875 4.59375H17.4062L19 9.375H4.125Z" fill="#E4E6EB"/>
</svg>
