<svg width="80" height="54" viewBox="0 0 80 54" fill="none" xmlns="http://www.w3.org/2000/svg">
<path d="M79.4454 16.4006C79.2553 15.847 78.5813 15.4164 78.0185 15.4164C75.5817 15.4164 73.1453 15.4164 70.7085 15.4164C70.146 15.4164 69.4718 15.847 69.2814 16.4006C69.0954 16.9425 68.9563 17.4259 68.8639 17.8806L63.9809 4.37165C63.1756 2.14405 61.0426 0.647423 58.6741 0.647423H21.3278C18.9591 0.647423 16.8266 2.14405 16.0208 4.37206L11.1377 17.8822C11.0451 17.4271 10.906 16.9431 10.7197 16.4006C10.5296 15.847 9.85533 15.4164 9.29281 15.4164C6.8562 15.4164 4.4196 15.4164 1.9828 15.4164C1.42027 15.4164 0.74605 15.847 0.555906 16.4006C-0.184399 18.556 -0.183994 19.79 0.556109 21.9456C0.746253 22.4992 1.42047 22.9298 1.983 22.9298C4.41981 22.9298 6.85641 22.9298 9.29301 22.9298C9.2999 22.9298 9.3072 22.9279 9.31429 22.9277L9.20402 23.2332C7.71347 23.7285 6.63727 25.1316 6.63727 26.7886V38.101V39.0332V51.5511C6.63727 52.5462 7.44366 53.3526 8.43878 53.3526H17.5055C18.5004 53.3526 19.307 52.5462 19.307 51.5511V42.7814H60.6948V51.5511C60.6948 52.5462 61.5014 53.3526 62.4963 53.3526H71.563C72.5581 53.3526 73.3645 52.5462 73.3645 51.5511V39.0332V38.101V26.7886C73.3645 25.132 72.2887 23.7291 70.7988 23.2334L70.6883 22.9277C70.695 22.9279 70.7021 22.9296 70.7087 22.9296C73.1456 22.9296 75.5819 22.9296 78.0188 22.9296C78.5815 22.9296 79.2555 22.499 79.4456 21.9454C80.1857 19.79 80.1853 18.556 79.4454 16.4006ZM22.0177 7.27693H57.9792L63.6771 23.0402H16.32L22.0177 7.27693ZM23.0207 34.145H15.4356C13.8082 34.145 12.4892 32.826 12.4892 31.1986C12.4892 29.5714 13.808 28.2522 15.4356 28.2522H23.0207C24.6479 28.2522 25.9671 29.5712 25.9671 31.1986C25.9673 32.826 24.6479 34.145 23.0207 34.145ZM64.5656 34.145H56.9805C55.3533 34.145 54.034 32.826 54.034 31.1986C54.034 29.5714 55.3533 28.2522 56.9805 28.2522H64.5656C66.1929 28.2522 67.512 29.5712 67.512 31.1986C67.512 32.826 66.1929 34.145 64.5656 34.145Z" fill="#4369C2"/>
</svg>
