<svg width="74" height="74" viewBox="0 0 74 74" fill="none" xmlns="http://www.w3.org/2000/svg">
<path d="M58.6697 9.69555H51.975V6.70059C51.975 5.73161 50.918 5.2912 49.949 5.2912H44.7519C43.5187 1.76766 40.4355 0.00588669 36.912 0.00588669C33.4272 -0.125121 30.2576 2.01163 29.0721 5.2912H23.963C22.994 5.2912 22.025 5.73161 22.025 6.70059V9.69555H15.3301C11.3628 9.73787 8.11714 12.8676 7.93066 16.8307V67.3053C7.93066 71.1812 11.4542 74 15.3301 74H58.6697C62.5456 74 66.0692 71.1812 66.0692 67.3053V16.8308C65.8827 12.8675 62.637 9.73787 58.6697 9.69555ZM25.5484 8.81475H30.3933C31.239 8.71156 31.9184 8.06816 32.0671 7.22917C32.5887 4.95736 34.5818 3.3266 36.912 3.26522C39.2205 3.3352 41.1836 4.97102 41.6687 7.22917C41.8267 8.09716 42.5509 8.74882 43.4305 8.81475H48.4516V15.8618H25.5484V8.81475ZM62.5456 67.3055C62.5456 69.2434 60.6076 70.4766 58.6697 70.4766H15.3301C13.3922 70.4766 11.4542 69.2434 11.4542 67.3055V16.8308C11.6339 14.8136 13.3052 13.2562 15.3301 13.2193H22.0248V17.7118C22.1179 18.6988 22.9727 19.4371 23.9628 19.3856H49.9488C50.9571 19.4407 51.8387 18.7125 51.9748 17.7118V13.2191H58.6695C60.6943 13.2562 62.3657 14.8134 62.5454 16.8307V67.3055H62.5456Z" fill="#4369C2"/>
<path d="M30.217 39.3813C29.5563 38.6848 28.4593 38.6455 27.7505 39.2933L22.1128 44.6666L19.7344 42.2001C19.0736 41.5036 17.9767 41.4645 17.2679 42.1121C16.5855 42.827 16.5855 43.9517 17.2679 44.6666L20.8794 48.3664C21.192 48.7164 21.6436 48.91 22.1126 48.895C22.5773 48.8884 23.0206 48.6984 23.3458 48.3664L30.2167 41.8479C30.8979 41.223 30.9434 40.1642 30.3184 39.4832C30.2863 39.4476 30.2525 39.4137 30.217 39.3813Z" fill="#4369C2"/>
<path d="M55.4986 43.1691H35.2383C34.2653 43.1691 33.4766 43.9578 33.4766 44.9308C33.4766 45.9039 34.2653 46.6926 35.2383 46.6926H55.4986C56.4717 46.6926 57.2604 45.9039 57.2604 44.9308C57.2604 43.9578 56.4717 43.1691 55.4986 43.1691Z" fill="#4369C2"/>
<path d="M30.217 25.2872C29.5563 24.5906 28.4593 24.5514 27.7505 25.1992L22.1128 30.5725L19.7344 28.1059C19.0736 27.4094 17.9767 27.3701 17.2679 28.0179C16.5855 28.7328 16.5855 29.8576 17.2679 30.5725L20.8794 34.2722C21.192 34.6222 21.6436 34.8158 22.1126 34.8008C22.5773 34.7942 23.0206 34.6042 23.3458 34.2722L30.2167 27.7537C30.8979 27.1289 30.9434 26.07 30.3184 25.389C30.2863 25.3534 30.2525 25.3195 30.217 25.2872Z" fill="#4369C2"/>
<path d="M55.4986 29.0749H35.2383C34.2653 29.0749 33.4766 29.8636 33.4766 30.8367C33.4766 31.8097 34.2653 32.5984 35.2383 32.5984H55.4986C56.4717 32.5984 57.2604 31.8097 57.2604 30.8367C57.2604 29.8636 56.4717 29.0749 55.4986 29.0749Z" fill="#4369C2"/>
<path d="M30.217 53.4753C29.5563 52.7788 28.4593 52.7397 27.7505 53.3873L22.1128 58.7606L19.7344 56.2941C19.0736 55.5976 17.9767 55.5585 17.2679 56.2061C16.5855 56.921 16.5855 58.0457 17.2679 58.7606L20.8794 62.4604C21.192 62.8104 21.6436 63.004 22.1126 62.989C22.5773 62.9824 23.0206 62.7924 23.3458 62.4604L30.2167 55.9419C30.8979 55.317 30.9434 54.2582 30.3184 53.5772C30.2863 53.5418 30.2525 53.5079 30.217 53.4753Z" fill="#4369C2"/>
<path d="M55.4986 57.2633H35.2383C34.2653 57.2633 33.4766 58.052 33.4766 59.0251C33.4766 59.9981 34.2653 60.7869 35.2383 60.7869H55.4986C56.4717 60.7869 57.2604 59.9981 57.2604 59.0251C57.2604 58.052 56.4717 57.2633 55.4986 57.2633Z" fill="#4369C2"/>
</svg>
