<svg width="40" height="41" viewBox="0 0 40 41" fill="none" xmlns="http://www.w3.org/2000/svg">
<path d="M23.6646 20.27L39.2398 4.69435C40.2534 3.68122 40.2534 2.04312 39.2398 1.02999C38.2267 0.0168585 36.5886 0.0168585 35.5754 1.02999L19.9998 16.6057L4.42457 1.02999C3.41096 0.0168585 1.77334 0.0168585 0.760205 1.02999C-0.253402 2.04312 -0.253402 3.68122 0.760205 4.69435L16.3354 20.27L0.760205 35.8457C-0.253402 36.8588 -0.253402 38.4969 0.760205 39.5101C1.26511 40.0154 1.92899 40.2693 2.59239 40.2693C3.25579 40.2693 3.91919 40.0154 4.42457 39.5101L19.9998 23.9344L35.5754 39.5101C36.0808 40.0154 36.7442 40.2693 37.4076 40.2693C38.071 40.2693 38.7344 40.0154 39.2398 39.5101C40.2534 38.4969 40.2534 36.8588 39.2398 35.8457L23.6646 20.27Z" fill="#D41A1A"/>
</svg>
