<svg width="495" height="455" viewBox="0 0 495 455" fill="none" xmlns="http://www.w3.org/2000/svg">
<path d="M439.5 64H234.729L198.09 25.279C182.464 8.269 164.607 0 143.5 0H55.5C24.897 0 0 24.897 0 55.5V399.5C0 430.103 24.897 455 55.5 455H439.5C470.103 455 495 430.103 495 399.5V119.5C495 88.897 470.103 64 439.5 64ZM480 399.5C480 421.832 461.832 440 439.5 440H55.5C33.168 440 15 421.832 15 399.5V167.5C15 145.168 33.168 127 55.5 127H439.5C461.832 127 480 145.168 480 167.5V399.5ZM439.5 112H55.5C39.536 112 25.135 118.784 15 129.61V55.5C15 33.168 33.168 15 55.5 15H143.5C160.42 15 174.268 21.503 187.079 35.465C187.105 35.493 187.131 35.522 187.158 35.549L226.053 76.654C227.469 78.151 229.439 79 231.5 79H439.5C461.832 79 480 97.168 480 119.5V129.61C469.865 118.784 455.464 112 439.5 112Z" fill="white"/>
<path d="M431.5 160H327.5C323.358 160 320 163.357 320 167.5C320 171.643 323.358 175 327.5 175H431.5C435.642 175 439 171.643 439 167.5C439 163.357 435.642 160 431.5 160Z" fill="white"/>
<path d="M431.5 200H327.5C323.358 200 320 203.357 320 207.5C320 211.643 323.358 215 327.5 215H431.5C435.642 215 439 211.643 439 207.5C439 203.357 435.642 200 431.5 200Z" fill="white"/>
</svg>
