<svg width="18" height="24" viewBox="0 0 18 24" fill="none" xmlns="http://www.w3.org/2000/svg">
<path d="M15.75 23.9528H2.25C1.01 23.9528 0 22.9457 0 21.7072V11.2279C0 9.9893 1.01 8.98228 2.25 8.98228H15.75C16.99 8.98228 18 9.9893 18 11.2279V21.7072C18 22.9457 16.99 23.9528 15.75 23.9528ZM2.25 10.4793C1.837 10.4793 1.5 10.8147 1.5 11.2279V21.7072C1.5 22.1204 1.837 22.4557 2.25 22.4557H15.75C16.163 22.4557 16.5 22.1204 16.5 21.7072V11.2279C16.5 10.8147 16.163 10.4793 15.75 10.4793H2.25Z" fill="#9A9A9A"/>
<path d="M14.25 10.4793C13.836 10.4793 13.5 10.144 13.5 9.73081V5.98819C13.5 3.51207 11.481 1.49705 9 1.49705C6.519 1.49705 4.5 3.51207 4.5 5.98819V9.73081C4.5 10.144 4.164 10.4793 3.75 10.4793C3.336 10.4793 3 10.144 3 9.73081V5.98819C3 2.6857 5.691 0 9 0C12.309 0 15 2.6857 15 5.98819V9.73081C15 10.144 14.664 10.4793 14.25 10.4793Z" fill="#9A9A9A"/>
<path d="M9 16.9665C7.897 16.9665 7 16.0713 7 14.9705C7 13.8696 7.897 12.9744 9 12.9744C10.103 12.9744 11 13.8696 11 14.9705C11 16.0713 10.103 16.9665 9 16.9665ZM9 14.4715C8.725 14.4715 8.5 14.695 8.5 14.9705C8.5 15.2459 8.725 15.4695 9 15.4695C9.275 15.4695 9.5 15.2459 9.5 14.9705C9.5 14.695 9.275 14.4715 9 14.4715Z" fill="#9A9A9A"/>
<path d="M9 19.9606C8.586 19.9606 8.25 19.6253 8.25 19.2121V16.4675C8.25 16.0543 8.586 15.719 9 15.719C9.414 15.719 9.75 16.0543 9.75 16.4675V19.2121C9.75 19.6253 9.414 19.9606 9 19.9606Z" fill="#9A9A9A"/>
</svg>
