<svg width="74" height="74" viewBox="0 0 74 74" fill="none" xmlns="http://www.w3.org/2000/svg">
<circle cx="37" cy="37" r="36.75" fill="white" stroke="black" stroke-width="0.5"/>
<path d="M37.0033 10C29.9811 10 24.2408 15.7222 24.2408 22.7222C24.2408 29.7223 29.9811 35.4445 37.0033 35.4445C44.0256 35.4445 49.7659 29.7223 49.7659 22.7222C49.7659 15.7222 44.0256 10 37.0033 10Z" fill="black"/>
<path d="M58.906 45.6111C58.5715 44.7778 58.1257 44 57.6242 43.2778C55.0605 39.5 51.1036 37 46.6451 36.3889C46.0878 36.3334 45.4747 36.4444 45.0289 36.7777C42.6881 38.5 39.9016 39.3888 37.0035 39.3888C34.1053 39.3888 31.3188 38.5 28.9781 36.7777C28.5322 36.4444 27.9191 36.2777 27.3618 36.3889C22.9033 37 18.8906 39.5 16.3827 43.2778C15.8812 44 15.4353 44.8334 15.1009 45.6111C14.9338 45.9445 14.9895 46.3334 15.1566 46.6667C15.6025 47.4445 16.1598 48.2223 16.6614 48.889C17.4416 49.9446 18.2776 50.8889 19.2251 51.7778C20.0053 52.5556 20.897 53.2778 21.7888 54C26.1915 57.2779 31.4861 59 36.9478 59C42.4095 59 47.704 57.2778 52.1068 54C52.9985 53.3334 53.8901 52.5556 54.6705 51.7778C55.5622 50.8889 56.4538 49.9445 57.2342 48.889C57.7914 48.1667 58.2931 47.4445 58.7389 46.6667C59.0174 46.3334 59.0731 45.9444 58.906 45.6111Z" fill="black"/>
</svg>
