<svg width="20" height="20" viewBox="0 0 20 20" fill="none" xmlns="http://www.w3.org/2000/svg">
<path d="M13.8392 11.868C16.24 8.47785 15.4371 3.78353 12.047 1.38332C8.65684 -1.01689 3.96252 -0.214524 1.56231 3.17617C-0.837903 6.56629 -0.0355384 11.26 3.35515 13.6602C5.77486 15.3734 8.974 15.5053 11.5262 13.998L17.0716 19.5102C17.6704 20.1405 18.6666 20.1658 19.2969 19.567C19.9272 18.9688 19.9525 17.9726 19.3543 17.3423C19.3353 17.3222 19.317 17.3039 19.2969 17.2849L13.8392 11.868ZM7.69618 12.3818C5.01723 12.3824 2.84529 10.2122 2.84357 7.53325C2.84299 4.85431 5.01322 2.68236 7.69274 2.68121C10.3682 2.68007 12.539 4.84685 12.5442 7.52236C12.5488 10.2019 10.3797 12.3773 7.69962 12.3818C7.69847 12.3818 7.6979 12.3818 7.69618 12.3818Z" fill="#4369C2"/>
</svg>
